<svg id="logo_productos_1" data-name="logo / productos 1" xmlns="http://www.w3.org/2000/svg" width="155" height="163.142" viewBox="0 0 155 163.142">
  <g id="Grupo_43051" data-name="Grupo 43051" transform="translate(10.345)">
    <path id="Trazado_21073" data-name="Trazado 21073" d="M323.248,352.322c3.483,6.093,6.536,10.516,8.526,15.377.771,1.883-.326,5.061-1.5,7.125-13.343,23.509-26.87,46.914-40.329,70.357-1.2,2.087-2.276,4.24-4.081,7.621h33.376c-3.533,6.189-6.148,10.986-9.023,15.624a4.47,4.47,0,0,1-3.243,1.763c-16.675.111-33.349.077-51.515.077Z" transform="translate(-255.463 -352.322)" fill="#57a0ff"/>
    <path id="Trazado_21074" data-name="Trazado 21074" d="M373.7,462.548H305.813c3.329-5.7,5.917-10.767,9.192-15.346.991-1.384,3.867-1.9,5.908-1.967,7.047-.231,14.105-.09,22.575-.09-5.219-9.121-9.72-17-14.234-24.869-4.332-7.55-8.41-15.267-13.121-22.574-2.812-4.36-3.121-7.923.024-12.136,2.366-3.169,4.121-6.793,6.789-11.3Z" transform="translate(-238.206 -344.799)" fill="#002351"/>
    <path id="Trazado_21075" data-name="Trazado 21075" d="M339.027,392.194l-9.963-17.3H348.91Z" transform="translate(-230.237 -344.586)" fill="#57a0ff"/>
  </g>
  <g id="PRODUTCX" transform="translate(0 141.176)" style="isolation: isolate">
    <path id="Trazado_21076" data-name="Trazado 21076" d="M10.605,9.5a7.025,7.025,0,0,1,5.129,2.052,6.8,6.8,0,0,1,2.082,5.039,6.8,6.8,0,0,1-2.082,5.039,7.022,7.022,0,0,1-5.129,2.052H6.894v6.94H2.73V9.5Zm0,10.289a2.91,2.91,0,0,0,2.2-.921,3.176,3.176,0,0,0,.875-2.278,3.164,3.164,0,0,0-.875-2.293,2.935,2.935,0,0,0-2.2-.905H6.894v6.4Z" transform="translate(-2.73 -9.078)" fill="#637381"/>
    <path id="Trazado_21077" data-name="Trazado 21077" d="M34.967,30.621,30.7,23.289H27.544v7.332H23.38V9.5h8.449a7.005,7.005,0,0,1,7.03,7,6.429,6.429,0,0,1-1.116,3.636,6.988,6.988,0,0,1-2.957,2.519l4.677,7.966ZM27.544,13.392v6.246h4.285a2.65,2.65,0,0,0,2.022-.921,3.163,3.163,0,0,0,.845-2.217,3.112,3.112,0,0,0-.845-2.2,2.67,2.67,0,0,0-2.022-.905Z" transform="translate(-5.578 -9.078)" fill="#637381"/>
    <path id="Trazado_21078" data-name="Trazado 21078" d="M62.208,27.793a11.092,11.092,0,0,1-15.554,0,10.6,10.6,0,0,1-3.184-7.8A10.87,10.87,0,0,1,54.423,9.01,10.895,10.895,0,0,1,65.406,19.993,10.584,10.584,0,0,1,62.208,27.793ZM49.565,24.957a7.037,7.037,0,0,0,9.716,0,6.694,6.694,0,0,0,1.961-4.964,6.745,6.745,0,0,0-1.961-4.979,7,7,0,0,0-9.716,0A6.745,6.745,0,0,0,47.6,19.993,6.694,6.694,0,0,0,49.565,24.957Z" transform="translate(-8.348 -9.01)" fill="#637381"/>
    <path id="Trazado_21079" data-name="Trazado 21079" d="M80.7,9.5a9.627,9.627,0,0,1,7.256,3.047,10.462,10.462,0,0,1,2.911,7.513,10.462,10.462,0,0,1-2.911,7.513A9.624,9.624,0,0,1,80.7,30.621H72.31V9.5Zm0,17.138a5.855,5.855,0,0,0,4.466-1.825,6.649,6.649,0,0,0,1.72-4.753,6.65,6.65,0,0,0-1.72-4.753A5.859,5.859,0,0,0,80.7,13.483H76.474V26.638Z" transform="translate(-12.326 -9.078)" fill="#637381"/>
    <path id="Trazado_21080" data-name="Trazado 21080" d="M104.936,31.044a8.447,8.447,0,0,1-5.793-1.991,6.758,6.758,0,0,1-2.263-5.341V9.5h4.134V23.38a3.579,3.579,0,0,0,.95,2.625,5.057,5.057,0,0,0,5.944,0,3.579,3.579,0,0,0,.95-2.625V9.5h4.164V23.712a6.758,6.758,0,0,1-2.263,5.341A8.489,8.489,0,0,1,104.936,31.044Z" transform="translate(-15.714 -9.078)" fill="#637381"/>
    <path id="Trazado_21081" data-name="Trazado 21081" d="M133.663,9.5v3.983h-5.7V30.621H123.8V13.483h-5.673V9.5Z" transform="translate(-18.644 -9.078)" fill="#637381"/>
    <path id="Trazado_21082" data-name="Trazado 21082" d="M148.708,30.976a10.565,10.565,0,0,1-7.876-3.168,10.725,10.725,0,0,1-3.107-7.815,10.712,10.712,0,0,1,3.107-7.83,10.589,10.589,0,0,1,7.876-3.154A10.767,10.767,0,0,1,154,10.352a9.847,9.847,0,0,1,3.787,3.636L154.2,16.071a5.58,5.58,0,0,0-2.234-2.217,7.225,7.225,0,0,0-8.222,1.131,6.867,6.867,0,0,0-1.885,5.009,6.826,6.826,0,0,0,1.885,4.979,6.623,6.623,0,0,0,4.964,1.931,6.719,6.719,0,0,0,3.273-.8,5.409,5.409,0,0,0,2.218-2.188L157.79,26a9.87,9.87,0,0,1-3.772,3.636A10.746,10.746,0,0,1,148.708,30.976Z" transform="translate(-21.347 -9.01)" fill="#002351"/>
    <path id="Trazado_21083" data-name="Trazado 21083" d="M179.7,30.621h-4.737l-4.1-6.888-4.1,6.888H162.05l6.456-10.839L162.382,9.5h4.707l3.776,6.323L174.632,9.5h4.706l-6.117,10.269Z" transform="translate(-24.701 -9.078)" fill="#002351"/>
  </g>
</svg>
