<svg id="logo_productos_2" data-name="logo / productos 2" xmlns="http://www.w3.org/2000/svg" width="50" height="43.646" viewBox="0 0 50 43.646">
  <path id="Trazado_21073" data-name="Trazado 21073" d="M280.478,352.322a53.628,53.628,0,0,1,3.146,5.69,3.636,3.636,0,0,1-.552,2.636c-4.924,8.7-9.916,17.36-14.883,26.035-.442.772-.84,1.569-1.506,2.82H279c-1.3,2.29-2.269,4.065-3.33,5.782a1.648,1.648,0,0,1-1.2.652c-6.154.041-12.307.028-19.011.028Z" transform="translate(-255.463 -352.322)" fill="#57a0ff"/>
  <path id="Trazado_21074" data-name="Trazado 21074" d="M330.864,406.938H305.813c1.228-2.108,2.184-3.984,3.392-5.679a3.106,3.106,0,0,1,2.18-.728c2.6-.085,5.205-.033,8.331-.033-1.926-3.375-3.587-6.29-5.253-9.2-1.6-2.794-3.1-5.649-4.842-8.353-1.038-1.613-1.152-2.932.009-4.491.873-1.173,1.521-2.514,2.505-4.18Z" transform="translate(-280.864 -363.365)" fill="#002351"/>
  <path id="Trazado_21075" data-name="Trazado 21075" d="M332.741,381.3l-3.677-6.4h7.324Z" transform="translate(-292.594 -363.679)" fill="#57a0ff"/>
</svg>
